<svg width="107" height="107" viewBox="0 0 107 107" fill="none" xmlns="http://www.w3.org/2000/svg">
<g clip-path="url(#clip0_26_20)">
<path d="M0.223999 53.3018C0.223999 39.2453 5.80791 25.7645 15.7473 15.8251C25.6868 5.88567 39.1675 0.301758 53.224 0.301758C67.2805 0.301758 80.7612 5.88567 90.7007 15.8251C100.64 25.7645 106.224 39.2453 106.224 53.3018C106.224 67.3582 100.64 80.839 90.7007 90.7784C80.7612 100.718 67.2805 106.302 53.224 106.302C39.1675 106.302 25.6868 100.718 15.7473 90.7784C5.80791 80.839 0.223999 67.3582 0.223999 53.3018ZM49.9115 7.43688C45.4727 8.78838 41.0671 12.8694 37.4101 19.7263C36.2059 22.0062 35.1696 24.371 34.3096 26.8018H49.9115V7.43688ZM27.3202 26.8018C28.4256 23.2831 29.8446 19.8708 31.5602 16.6059C32.7133 14.4443 34.0358 12.3774 35.5154 10.4248C27.308 13.8305 20.2462 19.513 15.1634 26.8018H27.3202ZM23.4645 49.9893C23.6632 44.1791 24.3787 38.6075 25.5315 33.4268H11.3142C8.85007 38.63 7.37628 44.2465 6.96825 49.9893H23.4645ZM32.3354 33.4268C31.0323 38.858 30.2821 44.407 30.0961 49.9893H49.9115V33.4268H32.3354ZM56.5365 33.4268V49.9893H76.3452C76.1614 44.4073 75.4134 38.8582 74.1126 33.4268H56.5365ZM30.1028 56.6143C30.2866 62.1963 31.0346 67.7453 32.3354 73.1768H49.9115V56.6143H30.1028ZM56.5365 56.6143V73.1768H74.1126C75.3515 68.1086 76.1399 62.5238 76.3519 56.6143H56.5365ZM34.3096 79.8018C35.2283 82.3634 36.2618 84.7219 37.4101 86.8773C41.0671 93.7341 45.4794 97.8085 49.9115 99.1666V79.8018H34.3096ZM35.5154 96.1788C34.0358 94.2261 32.7133 92.1592 31.5602 89.9976C29.8446 86.7328 28.4256 83.3204 27.3202 79.8018H15.1634C20.2379 87.0982 27.3022 92.7827 35.5154 96.1788ZM25.5315 73.1768C24.3353 67.7311 23.6433 62.1869 23.4645 56.6143H6.96825C7.379 62.5105 8.89612 68.0954 11.3142 73.1768H25.5315ZM70.9326 96.1788C79.1458 92.7827 86.2101 87.0982 91.2846 79.8018H79.1277C78.0224 83.3204 76.6034 86.7328 74.8877 89.9976C73.7347 92.1592 72.4122 94.2261 70.9326 96.1788ZM56.5365 79.8018V99.1666C60.9753 97.8151 65.3809 93.7341 69.0379 86.8773C70.1862 84.7263 71.2197 82.3678 72.1384 79.8018H56.5365ZM80.9165 73.1768H95.1338C97.5519 68.0954 99.069 62.5105 99.4798 56.6143H82.9835C82.8047 62.1869 82.1127 67.7311 80.9165 73.1768ZM99.4798 49.9893C99.0717 44.2465 97.5979 38.63 95.1338 33.4268H80.9165C82.0693 38.6075 82.7847 44.1791 82.9835 49.9893H99.4798ZM74.8877 16.6059C76.5241 19.6799 77.9485 23.0984 79.1277 26.8018H91.2846C86.2101 19.5054 79.1458 13.8208 70.9326 10.4248C72.3769 12.3063 73.7019 14.3865 74.8877 16.6059ZM72.1384 26.8018C71.2784 24.371 70.2421 22.0062 69.0379 19.7263C65.3809 12.8694 60.9753 8.79501 56.5365 7.43688V26.8018H72.1384Z" fill="black"/>
</g>
<defs>
<clipPath id="clip0_26_20">
<rect width="106" height="106" fill="white" transform="translate(0.223999 0.301758)"/>
</clipPath>
</defs>
</svg>
