<svg width="41" height="40" viewBox="0 0 41 40" fill="none" xmlns="http://www.w3.org/2000/svg">
<path d="M7.724 7.5H37.724L33.974 23.75H11.474M33.974 28.75H12.724L6.474 2.5H2.724" stroke="black" stroke-width="2" stroke-linecap="round" stroke-linejoin="round"/>
<path d="M31.474 36.25C32.8547 36.25 33.974 35.1307 33.974 33.75C33.974 32.3693 32.8547 31.25 31.474 31.25C30.0933 31.25 28.974 32.3693 28.974 33.75C28.974 35.1307 30.0933 36.25 31.474 36.25Z" stroke="black" stroke-width="2" stroke-linecap="round" stroke-linejoin="round"/>
<path d="M15.224 36.25C16.6047 36.25 17.724 35.1307 17.724 33.75C17.724 32.3693 16.6047 31.25 15.224 31.25C13.8433 31.25 12.724 32.3693 12.724 33.75C12.724 35.1307 13.8433 36.25 15.224 36.25Z" stroke="black" stroke-width="2" stroke-linecap="round" stroke-linejoin="round"/>
</svg>
