<svg width="33" height="32" viewBox="0 0 33 32" fill="none" xmlns="http://www.w3.org/2000/svg">
<path d="M16.224 18C15.2351 18 14.2684 17.7068 13.4462 17.1574C12.6239 16.6079 11.983 15.8271 11.6046 14.9134C11.2262 13.9998 11.1271 12.9945 11.3201 12.0246C11.513 11.0546 11.9892 10.1637 12.6885 9.46447C13.3877 8.76521 14.2786 8.289 15.2486 8.09608C16.2185 7.90315 17.2238 8.00217 18.1374 8.3806C19.0511 8.75904 19.8319 9.39991 20.3814 10.2222C20.9308 11.0444 21.224 12.0111 21.224 13C21.2224 14.3256 20.6951 15.5964 19.7578 16.5338C18.8204 17.4711 17.5496 17.9984 16.224 18ZM16.224 10C15.6307 10 15.0506 10.1759 14.5573 10.5056C14.0639 10.8352 13.6794 11.3038 13.4524 11.852C13.2253 12.4001 13.1659 13.0033 13.2816 13.5853C13.3974 14.1672 13.6831 14.7018 14.1027 15.1213C14.5222 15.5409 15.0568 15.8266 15.6387 15.9424C16.2207 16.0581 16.8239 15.9987 17.3721 15.7716C17.9202 15.5446 18.3888 15.1601 18.7184 14.6667C19.0481 14.1734 19.224 13.5933 19.224 13C19.2232 12.2046 18.9069 11.442 18.3444 10.8796C17.782 10.3171 17.0194 10.0008 16.224 10Z" fill="black"/>
<path d="M16.224 30L7.78801 20.051C7.67079 19.9016 7.55479 19.7513 7.44001 19.6C5.99899 17.7018 5.22052 15.3832 5.22401 13C5.22401 10.0826 6.38294 7.28473 8.44584 5.22183C10.5087 3.15893 13.3066 2 16.224 2C19.1414 2 21.9393 3.15893 24.0022 5.22183C26.0651 7.28473 27.224 10.0826 27.224 13C27.2275 15.3821 26.4494 17.6996 25.009 19.597L25.008 19.6C25.008 19.6 24.708 19.994 24.663 20.047L16.224 30ZM9.03701 18.395C9.03701 18.395 9.27001 18.703 9.32301 18.769L16.224 26.908L23.134 18.758C23.178 18.703 23.412 18.393 23.413 18.392C24.5902 16.8411 25.2263 14.947 25.224 13C25.224 10.6131 24.2758 8.32387 22.588 6.63604C20.9001 4.94821 18.611 4 16.224 4C13.8371 4 11.5479 4.94821 9.86005 6.63604C8.17222 8.32387 7.22401 10.6131 7.22401 13C7.22191 14.9482 7.85879 16.8434 9.03701 18.395Z" fill="black"/>
</svg>
