<svg width="41" height="40" viewBox="0 0 41 40" fill="none" xmlns="http://www.w3.org/2000/svg">
<path d="M35.224 35L27.9856 27.7617M27.9856 27.7617C29.2238 26.5235 30.2059 25.0536 30.876 23.4359C31.5461 21.8182 31.891 20.0843 31.891 18.3333C31.891 16.5823 31.5461 14.8485 30.876 13.2308C30.2059 11.613 29.2238 10.1432 27.9856 8.90501C26.7475 7.66686 25.2776 6.68471 23.6599 6.01463C22.0422 5.34455 20.3083 4.99966 18.5573 4.99966C16.8063 4.99966 15.0724 5.34455 13.4547 6.01463C11.837 6.68471 10.3671 7.66686 9.12898 8.90501C6.62843 11.4056 5.22363 14.797 5.22363 18.3333C5.22363 21.8697 6.62843 25.2611 9.12898 27.7617C11.6295 30.2622 15.021 31.667 18.5573 31.667C22.0936 31.667 25.4851 30.2622 27.9856 27.7617Z" stroke="black" stroke-width="1.5" stroke-linecap="round" stroke-linejoin="round"/>
</svg>
