<svg width="107" height="107" viewBox="0 0 107 107" fill="none" xmlns="http://www.w3.org/2000/svg">
<path d="M53.224 101.885C44.9796 101.885 37.3976 100.008 30.4782 96.2539C23.5587 92.4997 17.8907 87.4942 13.474 81.2373V88.6352C13.474 89.8866 13.05 90.9362 12.202 91.7842C11.354 92.6322 10.3058 93.0548 9.05733 93.0518C7.80594 93.0518 6.75772 92.6278 5.91267 91.7798C5.06761 90.9318 4.64361 89.8836 4.64067 88.6352V70.9685C4.64067 69.7171 5.06467 68.6689 5.91267 67.8238C6.76067 66.9788 7.80889 66.5548 9.05733 66.5518H26.724C27.9754 66.5518 29.0251 66.9758 29.8731 67.8238C30.7211 68.6718 31.1436 69.7201 31.1407 70.9685C31.1407 72.2199 30.7167 73.2696 29.8687 74.1176C29.0207 74.9656 27.9724 75.3881 26.724 75.3852H20.2094C23.7427 80.6852 28.3994 84.9546 34.1793 88.1935C39.9593 91.4324 46.3075 93.0518 53.224 93.0518C63.6032 93.0518 72.5292 89.5921 80.0022 82.6727C87.4752 75.7532 91.7256 67.2511 92.7532 57.1664C92.9004 55.9886 93.4157 55.0494 94.299 54.3486C95.1823 53.6478 96.2129 53.2989 97.3907 53.3018C98.642 53.3018 99.7094 53.689 100.593 54.4634C101.476 55.2378 101.844 56.1756 101.697 57.2768C101.182 63.5338 99.5622 69.3667 96.8386 74.7757C94.115 80.1846 90.5816 84.8957 86.2386 88.909C81.8955 92.9223 76.9091 96.0876 71.2793 98.4048C65.6495 100.722 59.6311 101.882 53.224 101.885ZM53.224 13.5518C42.8448 13.5518 33.9202 17.0116 26.4502 23.931C18.9801 30.8504 14.7283 39.3525 13.6948 49.4373C13.5476 50.615 13.0323 51.5543 12.149 52.2551C11.2657 52.9559 10.2351 53.3048 9.05733 53.3018C7.80594 53.3018 6.73858 52.9161 5.85525 52.1447C4.97192 51.3732 4.60386 50.4339 4.75108 49.3268C5.26636 43.0699 6.88581 37.2369 9.60942 31.828C12.333 26.4191 15.8664 21.7079 20.2094 17.6947C24.5525 13.6814 29.5404 10.5161 35.1731 8.19884C40.8058 5.88156 46.8228 4.72145 53.224 4.71851C61.4684 4.71851 69.0504 6.59559 75.9698 10.3498C82.8893 14.1039 88.5573 19.1095 92.974 25.3664V17.9685C92.974 16.7171 93.398 15.6689 94.246 14.8238C95.094 13.9788 96.1422 13.5548 97.3907 13.5518C98.642 13.5518 99.6917 13.9758 100.54 14.8238C101.388 15.6718 101.81 16.7201 101.807 17.9685V35.6352C101.807 36.8866 101.383 37.9363 100.535 38.7843C99.6873 39.6323 98.6391 40.0548 97.3907 40.0518H79.724C78.4726 40.0518 77.4244 39.6278 76.5793 38.7798C75.7343 37.9318 75.3073 35.6352 75.3073 35.6352C75.3073 34.3838 75.7313 33.3356 76.5793 32.4905C77.4273 31.6454 78.4755 31.2214 79.724 31.2185H86.2386C82.7052 25.9185 78.0501 21.6491 72.2731 18.4102C66.4961 15.1713 60.1464 13.5518 53.224 13.5518Z" fill="black"/>
</svg>
