<svg width="107" height="107" viewBox="0 0 107 107" fill="none" xmlns="http://www.w3.org/2000/svg">
<path d="M62.0574 66.5518C62.0574 71.4543 58.1265 75.3852 53.224 75.3852C50.8813 75.3852 48.6345 74.4545 46.9779 72.7979C45.3213 71.1414 44.3907 68.8946 44.3907 66.5518C44.3907 61.6493 48.3215 57.7185 53.224 57.7185C55.5668 57.7185 57.8136 58.6492 59.4701 60.3057C61.1267 61.9623 62.0574 64.2091 62.0574 66.5518ZM58.0382 88.6352C58.5682 91.8152 59.6724 94.7743 61.2182 97.4685H26.724C24.3813 97.4685 22.1345 96.5378 20.4779 94.8813C18.8213 93.2247 17.8907 90.9779 17.8907 88.6352V44.4685C17.8907 39.566 21.8215 35.6352 26.724 35.6352H31.1407V26.8018C31.1407 14.6118 41.034 4.71851 53.224 4.71851C65.414 4.71851 75.3074 14.6118 75.3074 26.8018V35.6352H79.724C82.0668 35.6352 84.3136 36.5658 85.9701 38.2224C87.6267 39.879 88.5574 42.1258 88.5574 44.4685V58.116C87.0999 57.8952 85.6424 57.7185 84.1407 57.7185C82.639 57.7185 81.1815 57.8952 79.724 58.116V44.4685H26.724V88.6352H58.0382ZM39.974 35.6352H66.474V26.8018C66.474 19.4702 60.5557 13.5518 53.224 13.5518C45.8924 13.5518 39.974 19.4702 39.974 26.8018V35.6352ZM94.4757 70.2618L78.6199 86.1177L71.5974 79.0952L66.474 84.2185L78.6199 97.4685L99.599 76.4893L94.4757 70.2618Z" fill="black"/>
</svg>
