<svg width="107" height="107" viewBox="0 0 107 107" fill="none" xmlns="http://www.w3.org/2000/svg">
<path d="M53.224 88.6352C45.0244 88.6352 37.1606 85.3779 31.3626 79.5799C25.5646 73.7819 22.3073 65.9181 22.3073 57.7185C22.3073 49.5189 25.5646 41.6551 31.3626 35.8571C37.1606 30.0591 45.0244 26.8018 53.224 26.8018C61.4236 26.8018 69.2874 30.0591 75.0854 35.8571C80.8834 41.6551 84.1407 49.5189 84.1407 57.7185C84.1407 65.9181 80.8834 73.7819 75.0854 79.5799C69.2874 85.3779 61.4236 88.6352 53.224 88.6352ZM84.2732 32.941L90.5448 26.6693C88.5573 24.4168 86.5698 22.3852 84.3173 20.4418L78.0457 26.8018C71.1998 21.2368 62.5873 17.9685 53.224 17.9685C42.6816 17.9685 32.5711 22.1564 25.1165 29.611C17.6619 37.0656 13.474 47.1761 13.474 57.7185C13.474 68.2609 17.6619 78.3714 25.1165 85.826C32.5711 93.2806 42.6816 97.4685 53.224 97.4685C75.3073 97.4685 92.974 79.6693 92.974 57.7185C92.974 48.3552 89.7057 39.7427 84.2732 32.941ZM48.8073 62.1352H57.6407V35.6352H48.8073M66.474 4.71851H39.974V13.5518H66.474V4.71851Z" fill="black"/>
</svg>
