<svg width="41" height="40" viewBox="0 0 41 40" fill="none" xmlns="http://www.w3.org/2000/svg">
<path d="M20.224 6.66668C18.4559 6.66668 16.7602 7.36906 15.51 8.6193C14.2597 9.86954 13.5573 11.5652 13.5573 13.3333C13.5573 15.1015 14.2597 16.7971 15.51 18.0474C16.7602 19.2976 18.4559 20 20.224 20C21.9921 20 23.6878 19.2976 24.938 18.0474C26.1883 16.7971 26.8907 15.1015 26.8907 13.3333C26.8907 11.5652 26.1883 9.86954 24.938 8.6193C23.6878 7.36906 21.9921 6.66668 20.224 6.66668ZM10.224 13.3333C10.224 10.6812 11.2776 8.13764 13.1529 6.26228C15.0283 4.38691 17.5718 3.33334 20.224 3.33334C22.8762 3.33334 25.4197 4.38691 27.2951 6.26228C29.1704 8.13764 30.224 10.6812 30.224 13.3333C30.224 15.9855 29.1704 18.529 27.2951 20.4044C25.4197 22.2798 22.8762 23.3333 20.224 23.3333C17.5718 23.3333 15.0283 22.2798 13.1529 20.4044C11.2776 18.529 10.224 15.9855 10.224 13.3333ZM13.5573 30C12.2312 30 10.9595 30.5268 10.0218 31.4645C9.08412 32.4022 8.55733 33.6739 8.55733 35C8.55733 35.442 8.38174 35.866 8.06918 36.1785C7.75662 36.4911 7.33269 36.6667 6.89067 36.6667C6.44864 36.6667 6.02471 36.4911 5.71215 36.1785C5.39959 35.866 5.224 35.442 5.224 35C5.224 32.7899 6.10197 30.6703 7.66478 29.1075C9.22758 27.5446 11.3472 26.6667 13.5573 26.6667H26.8907C29.1008 26.6667 31.2204 27.5446 32.7832 29.1075C34.346 30.6703 35.224 32.7899 35.224 35C35.224 35.442 35.0484 35.866 34.7358 36.1785C34.4233 36.4911 33.9994 36.6667 33.5573 36.6667C33.1153 36.6667 32.6914 36.4911 32.3788 36.1785C32.0663 35.866 31.8907 35.442 31.8907 35C31.8907 33.6739 31.3639 32.4022 30.4262 31.4645C29.4885 30.5268 28.2167 30 26.8907 30H13.5573Z" fill="black"/>
</svg>
